<?xml version="1.0" standalone="no"?>
<!DOCTYPE svg PUBLIC "-//W3C//DTD SVG 20010904//EN"
 "http://www.w3.org/TR/2001/REC-SVG-20010904/DTD/svg10.dtd">
<svg version="1.0" xmlns="http://www.w3.org/2000/svg"
 width="602.000000pt" height="602.000000pt" viewBox="0 0 602.000000 602.000000"
 preserveAspectRatio="xMidYMid meet">

<g transform="translate(0.000000,602.000000) scale(0.100000,-0.100000)"
fill="#000000" stroke="none">
<path d="M0 3020 l0 -3000 3000 0 3000 0 0 3000 0 3000 -3000 0 -3000 0 0
-3000z m5790 0 l0 -2790 -2790 0 -2790 0 0 2790 0 2790 2790 0 2790 0 0 -2790z"/>
<path d="M2725 5345 c-623 -101 -1136 -479 -1406 -1040 -288 -596 -239 -1298
130 -1846 413 -616 1151 -929 1881 -800 401 71 800 295 1066 599 274 312 431
683 465 1100 27 314 -36 649 -175 937 -96 200 -190 337 -336 489 -269 280
-595 462 -974 542 -104 22 -152 27 -341 30 -159 2 -245 -1 -310 -11z m420
-185 c382 -36 725 -190 992 -444 165 -157 266 -293 358 -481 188 -382 224
-803 105 -1212 -174 -597 -684 -1054 -1305 -1169 -76 -15 -147 -19 -300 -19
-225 0 -302 12 -494 71 -884 275 -1372 1217 -1089 2104 84 263 230 494 438
693 349 335 822 501 1295 457z"/>
<path d="M3310 4480 l0 -130 -365 0 -365 0 0 -125 0 -125 -362 -2 -363 -3 0
-530 c0 -517 1 -533 23 -639 32 -147 80 -285 158 -445 98 -203 236 -427 256
-415 25 16 156 232 228 379 80 163 127 284 150 388 7 31 16 57 19 57 3 0 14
-21 25 -48 36 -90 155 -312 226 -422 l72 -110 27 37 c142 200 275 463 336 668
47 157 41 145 56 105 29 -80 135 -280 216 -410 48 -77 90 -140 93 -140 3 0 35
46 71 103 163 250 275 502 332 742 19 85 21 123 24 643 l4 552 -430 0 -431 0
0 -130z m720 -469 c0 -510 -3 -541 -66 -723 -20 -56 -54 -138 -76 -182 -52
-105 -137 -246 -148 -246 -27 0 -181 293 -228 435 -63 187 -64 198 -69 708
l-5 467 296 0 296 0 0 -459z m-725 -256 c0 -407 -2 -470 -18 -545 -39 -180
-110 -354 -218 -529 l-52 -84 -20 24 c-78 97 -201 359 -248 529 -22 83 -23 99
-27 578 l-3 492 293 -2 293 -3 0 -460z m-725 -237 c0 -489 -6 -558 -61 -723
-17 -49 -50 -132 -74 -184 -43 -91 -140 -257 -156 -267 -11 -6 -115 165 -164
271 -44 93 -82 202 -111 315 -15 55 -18 136 -21 548 l-4 482 295 0 296 0 0
-442z"/>
<path d="M3482 4432 c11 -29 501 -893 509 -898 5 -3 9 178 9 450 l0 456 -261
0 c-143 0 -259 -4 -257 -8z"/>
<path d="M3473 3795 c4 -188 10 -280 22 -333 19 -84 64 -219 102 -301 34 -73
135 -251 142 -251 17 0 181 321 181 353 0 15 -423 764 -442 782 -7 7 -9 -68
-5 -250z"/>
<path d="M2757 4182 c-2 -4 42 -88 98 -187 55 -99 171 -304 256 -455 l154
-275 7 85 c3 47 6 252 7 456 1 337 -1 372 -16 378 -22 9 -502 7 -506 -2z"/>
<path d="M2753 3515 c5 -302 9 -331 73 -501 32 -85 112 -249 155 -315 29 -45
33 -48 44 -32 33 48 110 194 141 265 l33 78 -140 248 c-78 136 -173 303 -212
372 -39 69 -77 134 -84 145 -12 17 -14 -19 -10 -260z"/>
<path d="M2051 3873 c34 -58 100 -177 349 -620 117 -209 136 -238 141 -215 4
15 7 222 8 460 l1 432 -266 0 -265 0 32 -57z"/>
<path d="M2022 3270 c5 -257 7 -281 31 -370 43 -158 114 -317 210 -473 l24
-39 42 72 c49 82 141 269 141 287 0 7 -24 54 -54 105 -30 51 -129 226 -221
388 -92 162 -169 297 -172 300 -3 3 -3 -119 -1 -270z"/>
<path d="M3758 1310 c-154 -18 -254 -75 -306 -174 -25 -47 -27 -60 -27 -171 0
-112 2 -124 29 -178 59 -122 198 -177 441 -177 158 0 294 37 359 98 32 30 65
96 66 130 0 21 -4 22 -73 22 l-72 0 -13 -52 c-25 -106 -95 -143 -272 -143 -99
0 -121 3 -157 22 -88 47 -118 127 -111 297 6 128 23 181 74 225 44 39 93 51
201 52 112 0 172 -15 218 -55 28 -24 38 -41 42 -73 l6 -43 68 0 69 0 0 94 0
94 -67 12 c-162 28 -337 36 -475 20z"/>
<path d="M650 1282 c0 -22 18 -32 56 -32 37 0 81 -26 88 -52 3 -13 6 -119 6
-236 0 -266 -6 -280 -120 -298 -30 -5 -40 -11 -40 -25 0 -18 16 -19 408 -19
440 0 488 5 560 53 48 32 72 80 72 147 0 96 -39 131 -165 149 -37 6 -69 12
-72 15 -2 2 20 9 49 15 103 22 152 70 152 150 -1 61 -25 104 -71 127 -35 18
-71 19 -480 22 -433 3 -443 3 -443 -16z m704 -43 c57 -16 86 -49 86 -99 0 -55
-24 -99 -63 -115 -50 -20 -158 -28 -285 -20 l-115 8 6 96 c6 87 9 98 32 119
24 20 35 22 163 22 75 0 154 -5 176 -11z m42 -310 c58 -15 84 -48 84 -107 0
-120 -101 -163 -343 -146 -141 10 -149 17 -155 157 l-5 107 187 0 c106 0 207
-5 232 -11z"/>
<path d="M1720 1275 c0 -22 4 -25 34 -25 46 0 94 -18 106 -40 6 -11 10 -110
10 -227 0 -197 1 -211 23 -253 40 -81 149 -120 330 -120 114 0 177 15 237 55
l50 34 0 -40 0 -39 160 0 160 0 0 24 c0 20 -6 25 -45 30 -24 4 -54 15 -67 26
l-23 18 3 291 3 291 -176 0 -176 0 3 -22 c2 -18 12 -24 47 -30 55 -9 89 -31
103 -66 15 -39 3 -360 -15 -404 -31 -75 -106 -110 -237 -111 -92 -1 -145 21
-175 73 -23 40 -25 101 -12 388 l7 172 -175 0 -175 0 0 -25z"/>
<path d="M2886 1291 c-13 -21 7 -41 41 -41 25 0 43 -8 64 -29 l29 -29 0 -225
c0 -124 -3 -233 -6 -242 -8 -20 -48 -40 -96 -49 -32 -6 -38 -11 -38 -31 l0
-25 235 0 235 0 0 25 c0 20 -6 25 -37 31 -45 8 -74 22 -90 43 -9 12 -12 80
-13 243 0 224 0 227 23 254 17 19 37 29 68 33 36 5 45 10 47 29 l3 22 -230 0
c-127 0 -232 -4 -235 -9z"/>
<path d="M4400 1275 c0 -22 4 -25 35 -25 46 0 80 -17 94 -47 15 -33 15 -443 0
-477 -14 -31 -65 -56 -113 -56 -32 0 -36 -3 -36 -25 l0 -25 250 0 c245 0 250
0 250 20 0 22 -5 25 -64 35 -23 4 -51 18 -68 35 -26 26 -28 34 -28 102 0 71 1
74 29 91 16 9 36 17 44 17 8 0 88 -67 178 -150 l164 -150 152 0 c145 0 153 1
153 20 0 14 -10 22 -39 30 -21 5 -63 29 -93 53 -69 54 -368 309 -368 313 0 2
37 32 83 66 99 74 204 125 286 141 53 10 61 14 61 34 l0 23 -220 0 c-209 0
-220 -1 -220 -19 0 -14 10 -21 38 -26 71 -13 81 -43 30 -92 -28 -26 -227 -174
-265 -197 -10 -6 -13 19 -13 112 0 144 8 159 85 170 42 6 51 11 53 30 l3 22
-230 0 -231 0 0 -25z"/>
</g>
</svg>
