<?xml version="1.0" encoding="UTF-8"?>
<!DOCTYPE svg PUBLIC "-//W3C//DTD SVG 1.1//EN" "http://www.w3.org/Graphics/SVG/1.1/DTD/svg11.dtd">
<!-- Creator: CorelDRAW 2018 (64-Bit) -->
<svg xmlns="http://www.w3.org/2000/svg" xml:space="preserve" width="53.6769mm" height="31.4196mm" version="1.1" style="shape-rendering:geometricPrecision; text-rendering:geometricPrecision; image-rendering:optimizeQuality; fill-rule:evenodd; clip-rule:evenodd"
viewBox="0 0 1604.96 939.46"
 xmlns:xlink="http://www.w3.org/1999/xlink">
 <defs>
  <style type="text/css">
   <![CDATA[
    .fil0 {fill:#E31223}
   ]]>
  </style>
 </defs>
 <g id="Слой_x0020_1">
  <metadata id="CorelCorpID_0Corel-Layer"/>
  <path class="fil0" d="M-0 0l87.39 0 452 469.73 -452 469.73 -87.39 0 452 -469.73 -452 -469.73zm1604.96 0l-87.39 0 -408.3 424.32 -33 -34.3 375.31 -390.03 -80.96 0 -334.82 347.96 -36.21 -37.63 298.61 -310.32 -80.11 0 -258.56 268.7 -36.64 -38.08 221.92 -230.62 -69.19 0 -187.33 194.67 -42.1 -43.75 145.22 -150.92 -55.54 0 -117.45 122.06 -117.45 -122.06 -87.39 0 452 469.73 -452 469.73 87.39 0 452.01 -469.73 452 -469.73zm-1144.79 0l87.39 0 452 469.73 -452 469.73 -87.39 0 452 -469.73 -452 -469.73zm-153.39 0l87.39 0 452 469.73 -452 469.73 -87.39 0 452 -469.73 -452 -469.73zm-153.39 0l87.39 0 452 469.73 -452 469.73 -87.39 0 452 -469.73 -452 -469.73z"/>
 </g>
</svg>
